<?xml version="1.0" encoding="UTF-8"?>
<svg version="1.1" xmlns="http://www.w3.org/2000/svg" width="1001" height="945">
<path d="M0 0 C1.59408727 -0.00258765 3.1881739 -0.00560191 4.78225964 -0.0090034 C9.14293717 -0.01702998 13.50359821 -0.01886054 17.86428225 -0.01960087 C22.57553139 -0.02145907 27.28677212 -0.0290103 31.99801636 -0.03573608 C42.29189318 -0.04928983 52.58576609 -0.05533973 62.87965035 -0.05974674 C69.31525711 -0.06251462 75.75086238 -0.066753 82.18646812 -0.07125092 C100.02724392 -0.08344056 117.86801854 -0.09373993 135.70879841 -0.09712601 C136.84959756 -0.09734557 137.99039671 -0.09756514 139.16576554 -0.09779136 C140.30919971 -0.09800964 141.45263388 -0.09822791 142.63071758 -0.09845281 C144.94751187 -0.09889626 147.26430617 -0.09934283 149.58110046 -0.09979248 C150.73029546 -0.10001391 151.87949046 -0.10023534 153.06350955 -0.10046348 C171.66583473 -0.10440771 190.26812065 -0.12185167 208.87043069 -0.145152 C227.99857013 -0.16891624 247.12668993 -0.18133019 266.25484437 -0.18249393 C276.98261447 -0.18340793 287.71033343 -0.18909056 298.43808937 -0.20731354 C307.57683438 -0.22278325 316.71551243 -0.22779478 325.85426805 -0.21957543 C330.50902709 -0.21569289 335.16365159 -0.21647993 339.81839371 -0.23063278 C375.22423203 -0.33195379 407.7662529 1.49250722 436.20878601 25.14044189 C437.06987976 25.84942627 437.93097351 26.55841064 438.81816101 27.28887939 C458.84922194 44.52056845 471.49356166 69.03082321 475.20878601 95.14044189 C475.29938446 97.47586324 475.33957427 99.81351557 475.34300709 102.15069103 C475.34535932 102.83571311 475.34771155 103.52073518 475.35013506 104.2265155 C475.35678948 106.5208537 475.35636791 108.8151348 475.35595703 111.10948181 C475.3592579 112.771664 475.36298394 114.43384539 475.36709851 116.09602576 C475.37710174 120.66342661 475.38083262 125.23081432 475.38348782 129.79822457 C475.38739599 134.72491457 475.39697414 139.65159421 475.40570068 144.57827759 C475.42545318 156.47808606 475.4355309 168.37789536 475.44442847 180.27771613 C475.44881437 185.88634005 475.45418049 191.49496302 475.45941734 197.1035862 C475.4764303 215.75743126 475.49092255 234.41127574 475.49816608 253.06512737 C475.50007588 257.90476673 475.50199622 262.74440607 475.50395203 267.58404541 C475.50443577 268.78686749 475.50491951 269.98968956 475.50541791 271.22896079 C475.51371097 290.69618403 475.53903537 310.16334569 475.5715327 329.63054206 C475.60465054 349.63317449 475.62261921 369.63577568 475.62581033 389.63843566 C475.62797131 400.86253383 475.63665941 412.08654225 475.6622715 423.31061363 C475.68404329 432.8736924 475.69199724 442.43665961 475.68230472 451.99976035 C475.67777842 456.87300934 475.67954822 461.74602848 475.69906616 466.61924553 C475.71683147 471.09383629 475.71559323 475.56803182 475.70016887 480.04262755 C475.69781286 481.64843326 475.7020101 483.25426732 475.71399752 484.86003002 C475.81979469 499.98758644 473.7275335 515.26094928 467.39628601 529.14044189 C467.05009216 529.92677002 466.70389832 530.71309814 466.34721375 531.52325439 C454.217314 558.40588478 431.57978149 578.70551675 404.20878601 589.14044189 C389.86035253 593.91690258 376.30881257 595.29040532 361.25152588 595.28088379 C359.61506596 595.28346988 357.97860667 595.28648372 356.34214824 595.28988719 C351.85521392 595.29793191 347.36829561 595.29974535 342.88135493 595.30048466 C338.03790334 595.30233965 333.19445999 595.30988929 328.35101318 595.31661987 C317.76390739 595.33018631 307.17680539 595.33622544 296.58969235 595.34063053 C289.97422217 595.34339612 283.35875343 595.34763408 276.74328423 595.3521347 C258.41361489 595.36432575 240.08394672 595.37462501 221.75427341 595.3780098 C219.99544578 595.37833915 219.99544578 595.37833915 218.20108628 595.37867515 C217.02578459 595.37889343 215.8504829 595.3791117 214.639566 595.3793366 C212.25809832 595.37978006 209.87663064 595.38022662 207.49516296 595.38067627 C206.31388157 595.3808977 205.13260018 595.38111913 203.91552239 595.38134727 C184.78657966 595.38529292 165.65767509 595.40274057 146.52874709 595.42603579 C126.87184451 595.44977998 107.21496104 595.46221306 87.5580439 595.46337771 C76.52855885 595.46429281 65.49912349 595.47000334 54.46965218 595.48819733 C45.07529218 595.50363982 35.68099723 595.50869441 26.28662694 595.50045922 C21.49871125 595.49656723 16.71092641 595.49741095 11.92302704 595.51151657 C7.52885986 595.52434309 3.13492066 595.52298209 -1.2592466 595.51092586 C-2.83803655 595.50898388 -4.41684315 595.51197681 -5.99560981 595.52077022 C-37.75096994 595.68625939 -65.48425222 584.82362081 -88.47871399 562.89044189 C-109.97212393 540.61602142 -119.12458008 513.12460884 -119.05863953 482.52580261 C-119.06238234 480.86669047 -119.06698636 479.20758009 -119.07237017 477.54847246 C-119.0845378 473.0174116 -119.0843471 468.48642492 -119.08198142 463.95535147 C-119.08157166 459.05739127 -119.09262756 454.15945435 -119.10209656 449.26150513 C-119.11867366 439.67549947 -119.12420463 430.08951842 -119.12532131 420.50349962 C-119.12627342 412.70646225 -119.13039185 404.90943296 -119.13672256 397.11239815 C-119.1543266 374.97851548 -119.16356284 352.84465216 -119.16206162 330.71076243 C-119.1619817 329.5187798 -119.16190179 328.32679717 -119.16181946 327.09869385 C-119.1617377 325.90524601 -119.16165594 324.71179817 -119.1615717 323.48218525 C-119.16075921 304.15113648 -119.17988972 284.82016571 -119.20809619 265.48913949 C-119.23686803 245.61287418 -119.2506341 225.73664685 -119.24890864 205.86036021 C-119.24824619 194.71236886 -119.25367482 183.56445926 -119.27526474 172.41648674 C-119.29353327 162.92308285 -119.29777752 153.42979776 -119.28424589 143.93638384 C-119.27774458 139.09955199 -119.27749564 134.2629477 -119.29495239 129.42613792 C-119.31081487 124.98508608 -119.30768702 120.5444397 -119.29038413 116.10339696 C-119.28734292 114.50988657 -119.29083579 112.91634489 -119.30210428 111.32287144 C-119.50724281 80.21581976 -107.67099686 53.52948108 -86.51777649 30.80450439 C-62.50082181 7.33808163 -32.54332951 -0.02124767 0 0 Z " fill="#12243C" transform="translate(321.7912139892578,174.85955810546875)"/>
<path d="M0 0 C0.03867187 1.27230469 0.03867187 1.27230469 0.078125 2.5703125 C0.51363532 11.57745777 2.12527867 19.42753963 5 28 C5.27585937 28.87269531 5.55171875 29.74539063 5.8359375 30.64453125 C9.29786564 40.47450153 17.35979046 54.17989523 27 59 C25.67116274 62.98651178 23.05470687 64.51016089 19.8125 66.9375 C14.74266639 70.8193356 9.81440233 74.80557744 5 79 C0.43066047 82.96903497 -4.21509821 86.79370596 -9 90.5 C-15.11485684 95.23780762 -21.00136219 100.20492206 -26.84375 105.2734375 C-27.62685547 105.94971191 -27.62685547 105.94971191 -28.42578125 106.63964844 C-29.50990615 107.57648838 -30.59043782 108.51749732 -31.66796875 109.46191406 C-35.77543043 113 -35.77543043 113 -38 113 C-38.3403125 112.31035156 -38.680625 111.62070312 -39.03125 110.91015625 C-43.67313171 101.91033772 -49.08968171 94.12343302 -58 89 C-56.41413393 84.61800166 -52.97352932 82.13097802 -49.5 79.25 C-48.54734253 78.44731689 -48.54734253 78.44731689 -47.57543945 77.62841797 C-43.36978206 74.09862232 -39.10811328 70.64325894 -34.80078125 67.23828125 C-31.12647833 64.30191365 -27.50166365 61.30738033 -23.875 58.3125 C-15.61906943 51.49737561 -7.3178411 44.73935443 1 38 C-1.95876624 38.45566215 -4.91699046 38.91447157 -7.875 39.375 C-9.10863281 39.56449219 -9.10863281 39.56449219 -10.3671875 39.7578125 C-11.1921875 39.88671875 -12.0171875 40.015625 -12.8671875 40.1484375 C-13.98262939 40.32125244 -13.98262939 40.32125244 -15.12060547 40.49755859 C-17.59751446 40.92976808 -20.05474924 41.40988112 -22.51849365 41.91018677 C-27.8626998 42.98246457 -33.21958898 43.97124547 -38.58349609 44.93945312 C-39.58980576 45.12185043 -40.59611542 45.30424774 -41.63291931 45.49217224 C-44.92959334 46.08944897 -48.22650654 46.68539329 -51.5234375 47.28125 C-53.83453375 47.69952842 -56.1456196 48.11786433 -58.45669556 48.53625488 C-63.28970804 49.41099433 -68.12283824 50.28507966 -72.95605469 51.15869141 C-79.12480332 52.27375077 -85.29326754 53.39037449 -91.46164513 54.50748444 C-96.2315678 55.37116108 -101.00163584 56.23403271 -105.77174759 57.09666443 C-108.04498217 57.50785034 -110.31817378 57.91927396 -112.59132004 58.33094788 C-115.77997252 58.90829118 -118.9687879 59.48472161 -122.15771484 60.06054688 C-123.13449881 60.2371006 -124.11128277 60.41365433 -125.11766624 60.59555817 C-131.07434582 61.66758026 -137.0344612 62.69074651 -143.01602173 63.61535645 C-145.06460437 63.92030159 -145.06460437 63.92030159 -147 65 C-149.29809536 65.30869938 -151.59720129 65.50883648 -153.90625 65.71875 C-156.05443933 65.892155 -156.05443933 65.892155 -158 67 C-159.32908989 67.18045833 -160.66382043 67.32058429 -162 67.4375 C-165.35230517 67.77487256 -168.58189337 68.28982525 -171.875 69 C-177.21716958 70.12555145 -182.56068816 70.60704591 -188 71 C-188.10957031 69.74445313 -188.21914063 68.48890625 -188.33203125 67.1953125 C-189.14013352 58.47686426 -190.0101714 50.28198511 -193 42 C-193.40657046 40.62813649 -193.8034201 39.2533293 -194.1875 37.875 C-194.455625 36.92625 -194.72375 35.9775 -195 35 C-186.99741888 32.28562669 -178.95964727 30.86119988 -170.625 29.5625 C-161.82120525 28.1547426 -153.04275349 26.69144456 -144.3125 24.875 C-137.14158874 23.38450015 -129.96118172 22.16899028 -122.7199707 21.07373047 C-118.10509055 20.36508388 -113.55880851 19.5207077 -109 18.5 C-102.99760463 17.15690346 -96.98905588 16.19700074 -90.91133118 15.28251648 C-84.41843404 14.27846706 -77.99675422 13.02338837 -71.5625 11.69921875 C-59.15221904 9.18360007 -46.70478603 6.92970855 -34.22680664 4.77758789 C-30.74711699 4.17619998 -27.26907715 3.56580412 -23.79101562 2.95507812 C-21.55478062 2.56717112 -19.31845589 2.17978091 -17.08203125 1.79296875 C-16.0539888 1.61179001 -15.02594635 1.43061127 -13.9667511 1.24394226 C-9.25772221 0.43919055 -4.79895724 -0.23306755 0 0 Z " fill="#F7F7FC" transform="translate(597,327)"/>
<path d="M0 0 C9.93061443 8.36497702 17.47254849 19.97580291 19.4140625 33.00390625 C20.69429546 51.75843011 17.56539537 66.56107584 5.2265625 81.19140625 C-4.73105958 91.83403254 -18.54488197 98.17676702 -33.02734375 99.26171875 C-49.2088478 99.75961118 -63.67582626 94.30918047 -75.51953125 83.20703125 C-86.89629237 71.07755437 -92.12831882 56.88270641 -92.00732422 40.36694336 C-91.49821473 25.31786926 -84.4885892 11.2652255 -73.5859375 1.00390625 C-51.22360598 -17.45152875 -22.76699421 -17.57391849 0 0 Z " fill="#F8F8FD" transform="translate(366.5859375,571.99609375)"/>
<path d="M0 0 C15.47381154 -0.44105876 28.60221133 4.35708953 40.4140625 14.46875 C50.35978677 23.97854155 57.73034716 36.44895137 58.33984375 50.453125 C58.56179246 67.23356642 55.12399598 82.6011186 43.171875 95.25 C35.42301734 102.17571894 27.10373295 107.33343759 17.0390625 110.15625 C16.42417969 110.32987061 15.80929687 110.50349121 15.17578125 110.68237305 C1.31320426 113.75678597 -13.97601123 111.24286529 -26.2109375 104.40625 C-40.16772279 95.33547058 -49.0935757 82.3631179 -52.9609375 66.15625 C-54.76589585 48.75564026 -51.70028575 34.28107129 -40.9609375 20.15625 C-32.23867469 9.67471975 -20.42635081 2.98826548 -7.0859375 0.40625 C-4.72627704 0.21362466 -2.36442564 0.1247718 0 0 Z " fill="#F9F9FD" transform="translate(666.9609375,494.84375)"/>
<path d="M0 0 C0.84046875 0.69609375 1.6809375 1.3921875 2.546875 2.109375 C11.39934906 10.10342733 19.16831657 23.03638833 20.18359375 35.19946289 C20.2676163 37.61586153 20.27304358 40.01984432 20.25 42.4375 C20.26160156 43.64889648 20.26160156 43.64889648 20.2734375 44.88476562 C20.22960569 58.4835862 15.00354202 70.90275223 6 81 C5.47792969 81.61488281 4.95585938 82.22976563 4.41796875 82.86328125 C-4.92095337 93.1111009 -18.41579364 98.43409592 -32.08984375 99.34375 C-47.48811873 99.91324263 -60.53045877 95.83145336 -72.25 85.6875 C-78.89309435 79.40292185 -84.59642455 72.55621052 -88 64 C-88.44859375 62.87271484 -88.44859375 62.87271484 -88.90625 61.72265625 C-93.87520034 46.79280084 -91.79255276 30.46580412 -85.0625 16.5625 C-76.61953761 1.63178756 -63.35433986 -7.3063778 -47 -12 C-30.98789777 -15.52762321 -12.31811722 -10.6421829 0 0 Z " fill="#F9F9FD" transform="translate(705,287)"/>
<path d="M0 0 C1.41118419 1.1903694 2.80808242 2.39795995 4.1875 3.625 C4.79078125 4.12386719 5.3940625 4.62273437 6.015625 5.13671875 C15.31374781 13.45058081 21.75742189 26.60976028 22.49609375 38.97265625 C23.09605964 55.21118512 19.74057144 69.23722508 8.9375 81.75 C-1.07920839 92.41134804 -13.35595581 100.30186515 -28.36328125 100.92578125 C-45.65232128 101.1396033 -59.83008296 97.70650454 -72.75 85.3125 C-85.24069083 72.00483085 -89.39120018 57.04328878 -89.0859375 39.171875 C-88.50444146 25.25051443 -80.6194709 12.34066428 -70.68359375 2.94921875 C-50.46517348 -13.41807385 -21.50660843 -16.33181015 0 0 Z " fill="#F9F9FD" transform="translate(369.8125,349.375)"/>
<path d="M0 0 C0.05607422 1.63195312 0.05607422 1.63195312 0.11328125 3.296875 C0.48781573 12.23773768 1.49157924 20.3705525 4 29 C4.68363874 31.66268999 5.34196034 34.33080882 6 37 C5.28980713 37.14099121 4.57961426 37.28198242 3.84790039 37.42724609 C0.5858919 38.07545382 -2.67580508 38.72521635 -5.9375 39.375 C-7.05447266 39.59671875 -8.17144531 39.8184375 -9.32226562 40.046875 C-14.22974796 41.02549318 -19.12918416 42.01449876 -24.0078125 43.12890625 C-26.983511 43.80113447 -29.89262438 44.3037131 -32.9375 44.5625 C-35.35574528 44.77148416 -36.81712113 44.90856057 -39 46 C-40.32908989 46.18045833 -41.66382043 46.32058429 -43 46.4375 C-46.26677173 46.76625012 -49.43749255 47.24354086 -52.65103149 47.91394043 C-57.94928272 48.99700612 -63.26183692 49.9788714 -68.58349609 50.93945312 C-69.58980576 51.12185043 -70.59611542 51.30424774 -71.63291931 51.49217224 C-74.92959334 52.08944897 -78.22650654 52.68539329 -81.5234375 53.28125 C-83.83453375 53.69952842 -86.1456196 54.11786433 -88.45669556 54.53625488 C-93.28970804 55.41099433 -98.12283824 56.28507966 -102.95605469 57.15869141 C-109.12480332 58.27375077 -115.29326754 59.39037449 -121.46164513 60.50748444 C-126.2315678 61.37116108 -131.00163584 62.23403271 -135.77174759 63.09666443 C-138.04498217 63.50785034 -140.31817378 63.91927396 -142.59132004 64.33094788 C-145.77997252 64.90829118 -148.9687879 65.48472161 -152.15771484 66.06054688 C-153.13449881 66.2371006 -154.11128277 66.41365433 -155.11766624 66.59555817 C-161.07434582 67.66758026 -167.0344612 68.69074651 -173.01602173 69.61535645 C-175.06460437 69.92030159 -175.06460437 69.92030159 -177 71 C-179.29809536 71.30869938 -181.59720129 71.50883648 -183.90625 71.71875 C-186.05443933 71.892155 -186.05443933 71.892155 -188 73 C-189.99960012 73.039992 -192.00047242 73.04346799 -194 73 C-194.02578125 72.23558594 -194.0515625 71.47117187 -194.078125 70.68359375 C-194.72101471 58.54174488 -198.11741394 47.44238208 -202 36 C-189.1704502 33.46893907 -176.35479496 30.97356188 -163.42260742 29.02416992 C-157.76150761 28.15771891 -152.20269267 26.99287472 -146.61328125 25.7421875 C-141.73168919 24.7394821 -136.8204806 24.02144554 -131.89375305 23.27963257 C-125.57247234 22.30178282 -119.32495748 21.07830063 -113.0625 19.78125 C-102.72196982 17.67838547 -92.35430318 15.78751647 -81.95703125 13.9921875 C-80.85197015 13.80126966 -80.85197015 13.80126966 -79.72458458 13.6064949 C-74.42133709 12.69143122 -69.11700045 11.78276715 -63.8125 10.875 C-58.45959774 9.95842064 -53.1071147 9.03947821 -47.75537682 8.1161232 C-45.65900012 7.75543041 -43.56205586 7.39819635 -41.46504211 7.04122925 C-33.9715426 5.75039485 -26.5326161 4.31264759 -19.10673523 2.67581177 C-6.15070092 -0.14252961 -6.15070092 -0.14252961 0 0 Z " fill="#F7F7FC" transform="translate(597,544)"/>
<path d="M0 0 C7.52012308 4.70691838 13.82179411 10.62642239 17.68359375 18.6796875 C18.00070312 19.33066406 18.3178125 19.98164063 18.64453125 20.65234375 C22.18909565 29.35116005 21.99493572 39.7835897 19.05859375 48.6171875 C14.71531484 58.84734967 6.77185223 67.87416821 -3.62890625 72.1171875 C-13.56972356 75.68691739 -23.719246 76.1845279 -33.6171875 72.06640625 C-45.23631631 66.09709984 -52.50846929 58.17064895 -56.6171875 45.7578125 C-59.0979154 34.83706623 -57.74941222 24.45402068 -52.31640625 14.6796875 C-40.49608361 -2.12006239 -18.94793061 -9.30314485 0 0 Z " fill="#F8F8FC" transform="translate(529.31640625,423.3203125)"/>
<path d="M0 0 C2.18850797 2.7982096 3.96354015 5.6478602 5.6875 8.75 C9.6351948 15.41481141 14.75862008 20.46459726 21 25 C19.67115057 28.98654828 17.05468322 30.51007237 13.8125 32.9375 C8.68581466 36.86463217 3.69186862 40.89422376 -1.1875 45.125 C-7.04072798 50.1906674 -12.98663185 55.12478051 -19 60 C-25.38816728 65.21321843 -31.76052518 70.44540453 -38.125 75.6875 C-38.83954346 76.27595703 -39.55408691 76.86441406 -40.2902832 77.47070312 C-44.10564286 80.61351188 -47.91914372 83.75854946 -51.73046875 86.90625 C-52.49794434 87.53958252 -53.26541992 88.17291504 -54.05615234 88.82543945 C-55.52714162 90.03937964 -56.9975479 91.2540267 -58.46728516 92.46948242 C-67.59565307 100 -67.59565307 100 -70 100 C-71.4110526 98.21008127 -72.75328012 96.36569606 -74.0625 94.5 C-77.58408621 89.61319513 -81.30099369 85.58605988 -85.95703125 81.71875 C-88.09590167 79.91931791 -90.04867488 77.99956012 -92 76 C-86.3337817 70.79190148 -80.57975111 65.77677719 -74.5390625 61.0078125 C-64.97347868 53.44364314 -55.63277621 45.58558903 -46.22167969 37.83056641 C-41.94589552 34.3075082 -37.66905414 30.78573317 -33.3918457 27.2644043 C-29.76076053 24.27476472 -26.13113076 21.28338535 -22.50390625 18.2890625 C-15.04695986 12.13580081 -7.58229875 5.99877198 0 0 Z " fill="#F7F7FC" transform="translate(462,477)"/>
</svg>
