<?xml version="1.0" encoding="UTF-8"?>
<svg version="1.1" xmlns="http://www.w3.org/2000/svg" width="1001" height="945">
<path d="M0 0 C1.59408727 -0.00258765 3.1881739 -0.00560191 4.78225964 -0.0090034 C9.14293717 -0.01702998 13.50359821 -0.01886054 17.86428225 -0.01960087 C22.57553139 -0.02145907 27.28677212 -0.0290103 31.99801636 -0.03573608 C42.29189318 -0.04928983 52.58576609 -0.05533973 62.87965035 -0.05974674 C69.31525711 -0.06251462 75.75086238 -0.066753 82.18646812 -0.07125092 C100.02724392 -0.08344056 117.86801854 -0.09373993 135.70879841 -0.09712601 C136.84959756 -0.09734557 137.99039671 -0.09756514 139.16576554 -0.09779136 C140.30919971 -0.09800964 141.45263388 -0.09822791 142.63071758 -0.09845281 C144.94751187 -0.09889626 147.26430617 -0.09934283 149.58110046 -0.09979248 C150.73029546 -0.10001391 151.87949046 -0.10023534 153.06350955 -0.10046348 C171.66583473 -0.10440771 190.26812065 -0.12185167 208.87043069 -0.145152 C227.99857013 -0.16891624 247.12668993 -0.18133019 266.25484437 -0.18249393 C276.98261447 -0.18340793 287.71033343 -0.18909056 298.43808937 -0.20731354 C307.57683438 -0.22278325 316.71551243 -0.22779478 325.85426805 -0.21957543 C330.50902709 -0.21569289 335.16365159 -0.21647993 339.81839371 -0.23063278 C375.12966896 -0.33168317 407.89710964 1.4188057 436.20878601 25.14044189 C437.72085632 26.4069458 437.72085632 26.4069458 439.26347351 27.69903564 C454.18906597 40.59287207 464.32089494 56.81208584 470.64628601 75.45294189 C470.88121765 76.14476562 471.11614929 76.83658936 471.35820007 77.54937744 C475.03656193 89.15256555 475.50211917 100.74152471 475.47621155 112.79977417 C475.47995432 114.4637238 475.48455832 116.12767167 475.48994219 117.7916168 C475.50211018 122.33600979 475.50191909 126.88032882 475.49955344 131.42473435 C475.4991437 136.33699046 475.51019942 141.24922335 475.51966858 146.16146851 C475.53624558 155.77521263 475.54177663 165.38893221 475.54289334 175.00268944 C475.54384539 182.82166522 475.54796356 190.64063294 475.55429459 198.45960617 C475.57189813 220.65389202 475.58113487 242.84815857 475.57963364 265.04245146 C475.57951377 266.83529998 475.57951377 266.83529998 475.57939148 268.66436768 C475.57930972 269.86106844 475.57922796 271.0577692 475.57914372 272.29073362 C475.57833111 291.67742332 475.59746475 311.06403528 475.62566821 330.4507025 C475.65443444 350.38233358 475.66820644 370.31392678 475.66648066 390.24557912 C475.66581804 401.42539657 475.67125403 412.6051325 475.69283676 423.78493118 C475.71109781 433.30471399 475.71535558 442.82437833 475.70181791 452.34417112 C475.69531303 457.19505569 475.69508082 462.04571332 475.71252441 466.89657593 C475.72837066 471.34929455 475.72527513 475.80160848 475.70795615 480.25431792 C475.70491145 481.85319406 475.70842145 483.45210129 475.7196763 485.05094071 C475.92469122 516.27787478 463.86771385 542.74036096 442.52128601 565.20294189 C420.08958847 586.94655055 391.86659436 595.30024333 361.25152588 595.28088379 C359.61506596 595.28346988 357.97860667 595.28648372 356.34214824 595.28988719 C351.85521392 595.29793191 347.36829561 595.29974535 342.88135493 595.30048466 C338.03790334 595.30233965 333.19445999 595.30988929 328.35101318 595.31661987 C317.76390739 595.33018631 307.17680539 595.33622544 296.58969235 595.34063053 C289.97422217 595.34339612 283.35875343 595.34763408 276.74328423 595.3521347 C258.41361489 595.36432575 240.08394672 595.37462501 221.75427341 595.3780098 C219.99544578 595.37833915 219.99544578 595.37833915 218.20108628 595.37867515 C217.02578459 595.37889343 215.8504829 595.3791117 214.639566 595.3793366 C212.25809832 595.37978006 209.87663064 595.38022662 207.49516296 595.38067627 C206.31388157 595.3808977 205.13260018 595.38111913 203.91552239 595.38134727 C184.78657966 595.38529292 165.65767509 595.40274057 146.52874709 595.42603579 C126.87184451 595.44977998 107.21496104 595.46221306 87.5580439 595.46337771 C76.52855885 595.46429281 65.49912349 595.47000334 54.46965218 595.48819733 C45.07529218 595.50363982 35.68099723 595.50869441 26.28662694 595.50045922 C21.49871125 595.49656723 16.71092641 595.49741095 11.92302704 595.51151657 C7.52885986 595.52434309 3.13492066 595.52298209 -1.2592466 595.51092586 C-2.83803655 595.50898388 -4.41684315 595.51197681 -5.99560981 595.52077022 C-37.75096994 595.68625939 -65.48425222 584.82362081 -88.47871399 562.89044189 C-109.61231844 540.98890124 -119.12986041 513.71366095 -119.0519104 483.58790588 C-119.05493509 481.92339427 -119.05882616 480.25888405 -119.06350297 478.59437627 C-119.07375103 474.04385894 -119.07160929 469.49342068 -119.06732237 464.94289696 C-119.06484929 460.02589268 -119.07387661 455.10890715 -119.08135986 450.19190979 C-119.09409338 440.56733328 -119.09590218 430.94278468 -119.0935596 421.31820116 C-119.09177453 413.49155689 -119.09353013 405.66492108 -119.09778404 397.83827782 C-119.09837923 396.72314183 -119.09897442 395.60800585 -119.09958765 394.45907786 C-119.10079944 392.19343843 -119.10201357 389.92779901 -119.10323002 387.66215958 C-119.11410067 366.4255757 -119.1119455 345.18900771 -119.10584518 323.95242294 C-119.10067821 304.54493231 -119.11192652 285.1374919 -119.1309434 265.7300112 C-119.15033882 245.78260205 -119.15857469 225.83521665 -119.15482014 205.88779801 C-119.15291046 194.69686778 -119.1553728 183.50598027 -119.16953468 172.31505775 C-119.18147128 162.78642353 -119.18282795 153.25785832 -119.17074452 143.72922311 C-119.16487142 138.87255558 -119.16371273 134.01601416 -119.17574692 129.15935516 C-119.18665869 124.70367485 -119.18343998 120.24822512 -119.16948523 115.79255535 C-119.16685276 114.19032216 -119.16915864 112.58807057 -119.1772211 110.9858555 C-119.30081734 84.56667759 -111.44691946 59.19300222 -93.79121399 39.14044189 C-93.1273468 38.33348877 -92.46347961 37.52653564 -91.77949524 36.69512939 C-73.40815348 15.0298502 -46.80262123 3.02553813 -18.83161318 0.34556437 C-12.56282931 -0.07736314 -6.28005042 -0.00410027 0 0 Z " fill="#F9F9FD" transform="translate(321.7912139892578,174.85955810546875)"/>
<path d="M0 0 C0.03867187 1.25490234 0.03867187 1.25490234 0.078125 2.53515625 C1.17641678 25.07509884 9.63859798 43.45666808 26 59 C24.41650917 63.35718719 21.02067433 65.8230194 17.5625 68.6875 C16.93432373 69.21641846 16.30614746 69.74533691 15.65893555 70.2902832 C13.77935213 71.86848473 11.89159597 73.43622637 10 75 C9.01515625 75.8146875 8.0303125 76.629375 7.015625 77.46875 C4.35147521 79.65550879 1.67733 81.82940757 -1 84 C-7.59480318 89.38184865 -14.17514806 94.78130564 -20.75 100.1875 C-21.45914551 100.76975342 -22.16829102 101.35200684 -22.89892578 101.9519043 C-23.58712402 102.51820557 -24.27532227 103.08450684 -24.984375 103.66796875 C-25.65404297 104.21888184 -26.32371094 104.76979492 -27.01367188 105.33740234 C-29.5762417 107.4823262 -32.07642591 109.69511718 -34.56347656 111.92700195 C-36 113 -36 113 -38 113 C-39.13162539 111.20850862 -40.17946133 109.36383352 -41.1875 107.5 C-45.91884967 99.18340399 -50.99113055 93.23028209 -59 88 C-55.77269234 84.69172047 -52.47265517 81.64960267 -48.875 78.75 C-47.905625 77.96496094 -46.93625 77.17992187 -45.9375 76.37109375 C-44.968125 75.58863281 -43.99875 74.80617188 -43 74 C-41.29039047 72.60573003 -39.58205762 71.2098932 -37.875 69.8125 C-36.97007812 69.07257813 -36.06515625 68.33265625 -35.1328125 67.5703125 C-32.76860427 65.63342678 -30.41078992 63.68892415 -28.0546875 61.7421875 C-18.77115065 54.07429086 -9.42634778 46.49168251 0 39 C-4.06055059 38.82345432 -7.64775969 39.04771488 -11.62779236 39.89233398 C-16.76584707 40.95631038 -21.91681231 41.91605982 -27.08032227 42.84765625 C-28.03292938 43.02029999 -28.9855365 43.19294373 -29.9670105 43.37081909 C-32.0168069 43.74221775 -34.06667537 44.11321888 -36.11660957 44.4838562 C-39.36713785 45.07167419 -42.61743016 45.66078122 -45.86766052 46.25024414 C-55.10243719 47.92486993 -64.33757518 49.59749641 -73.57299805 51.26855469 C-79.23876307 52.29381125 -84.90421141 53.32080286 -90.56947136 54.34884644 C-92.71942034 54.73862177 -94.86949033 55.12773022 -97.01968575 55.5161438 C-100.02977806 56.05992001 -103.03946351 56.60589848 -106.04907227 57.15234375 C-106.92672745 57.3103244 -107.80438263 57.46830505 -108.70863342 57.631073 C-113.53679641 58.51029864 -118.32768011 59.48721329 -123.10986233 60.5904541 C-125.3780685 61.08191806 -127.62595181 61.3660393 -129.9375 61.5625 C-132.35574528 61.77148416 -133.81712113 61.90856057 -136 63 C-138.29809536 63.30869938 -140.59720129 63.50883648 -142.90625 63.71875 C-145.05443933 63.892155 -145.05443933 63.892155 -147 65 C-149.87310833 65.49168658 -152.74240466 65.9465023 -155.625 66.375 C-163.32152534 67.54482497 -170.95176504 68.90735148 -178.58203125 70.44921875 C-181.79407371 70.96681645 -184.75433153 71.10437831 -188 71 C-188.08636719 69.80246094 -188.17273438 68.60492188 -188.26171875 67.37109375 C-189.06781915 57.62451568 -190.55929548 48.98385694 -193.9765625 39.80859375 C-195 37 -195 37 -195 35 C-188.51192555 32.92093492 -182.11451033 31.32170951 -175.3984375 30.1953125 C-174.47659164 30.03520187 -173.55474579 29.87509125 -172.60496521 29.71012878 C-170.5917931 29.36095681 -168.57815719 29.01445067 -166.56411743 28.6703186 C-160.92712911 27.7064298 -155.29393965 26.72069768 -149.66015625 25.73828125 C-147.82426186 25.4189286 -147.82426186 25.4189286 -145.95127869 25.09312439 C-130.33626917 22.3717125 -114.73895615 19.55201155 -99.14130402 16.73311615 C-96.85404633 16.32000388 -94.56666627 15.90757695 -92.27923584 15.49542236 C-73.8563504 12.17578882 -55.44699097 8.79224275 -37.05175781 5.32250977 C-30.35218986 4.06105609 -23.64659648 2.83466485 -16.9375 1.625 C-15.98132278 1.45222031 -15.02514557 1.27944061 -14.03999329 1.10142517 C-9.28106437 0.25193504 -4.83329383 -0.17050969 0 0 Z " fill="#13233A" transform="translate(597,327)"/>
<path d="M0 0 C12.13078274 8.90537395 21.52483997 20.54532855 24.3359375 35.71484375 C26.25342177 53.19717781 23.17947416 68.24588214 12.3359375 82.30859375 C3.47063777 92.82030629 -9.01826941 100.22234649 -22.6640625 102.71484375 C-40.19497483 103.85857172 -55.23023228 100.08533006 -68.9140625 88.52734375 C-79.26673679 78.716093 -86.3355606 64.87917411 -86.8671875 50.54296875 C-87.00984733 42.17601526 -87.06977 34.51501253 -83.6640625 26.71484375 C-83.32375 25.90015625 -82.9834375 25.08546875 -82.6328125 24.24609375 C-75.473233 8.57241971 -63.23493332 -0.74987381 -47.6640625 -7.28515625 C-31.37040982 -12.57353739 -14.18901998 -9.26293165 0 0 Z " fill="#13253D" transform="translate(361.6640625,568.28515625)"/>
<path d="M0 0 C12.52214468 8.52610733 21.33306167 19.89544281 24.65625 34.80859375 C24.83800781 35.39511719 25.01976562 35.98164062 25.20703125 36.5859375 C28.39153832 52.34232466 24.05813614 67.49832923 15.65625 80.80859375 C7.83968706 91.88052526 -5.21695531 99.79566919 -18.34375 102.80859375 C-37.41560312 104.55573689 -52.94435987 101.54153922 -67.96875 89.18359375 C-79.43465397 78.44696989 -85.3003445 64.69003196 -85.88256836 49.1640625 C-86.02598695 33.38506033 -81.10264002 19.61549466 -70.09375 7.99609375 C-50.22650357 -10.49984442 -23.54795914 -13.88637002 0 0 Z " fill="#12243C" transform="translate(699.34375,503.19140625)"/>
<path d="M0 0 C0.80308594 0.350625 1.60617187 0.70125 2.43359375 1.0625 C17.24049552 8.45311995 26.87463198 21.9434667 32.109375 37.2421875 C35.79439254 52.79037553 32.81054195 68.33699398 24.6875 81.9375 C16.42971079 93.89095933 4.78840376 102.54043288 -9.3515625 106.375 C-25.47323755 109.13674305 -40.17396129 106.73850963 -54.15234375 98.02734375 C-65.39421189 90.02387384 -74.4789217 77.8924396 -77.6015625 64.24609375 C-78.93918458 53.34840801 -79.5943568 41.18909774 -75 31 C-74.6596875 30.18789063 -74.319375 29.37578125 -73.96875 28.5390625 C-67.35113225 14.00713163 -55.71375654 3.96878803 -41 -2 C-28.19908331 -6.48822264 -12.34093335 -5.39804854 0 0 Z " fill="#12243C" transform="translate(692,279)"/>
<path d="M0 0 C0.80759766 -0.00773437 1.61519531 -0.01546875 2.44726562 -0.0234375 C16.0460862 0.02039431 28.46525223 5.24645798 38.5625 14.25 C39.48482422 15.03310547 39.48482422 15.03310547 40.42578125 15.83203125 C49.76283759 24.34096729 56.26439852 37.32945439 56.87109375 49.94921875 C57.22828469 66.35618945 53.73340543 80.69185794 42.5625 93.25 C42.06363281 93.85328125 41.56476563 94.4565625 41.05078125 95.078125 C32.49156946 104.65064398 19.14700578 110.62402125 6.48193359 111.37304688 C-10.01942775 111.97671033 -22.85434102 109.0790153 -35.6875 97.9375 C-45.67745758 88.45416467 -54.20131425 76.24782467 -54.703125 61.98046875 C-54.71221347 60.46616415 -54.70657996 58.95171167 -54.6875 57.4375 C-54.67855713 56.63924805 -54.66961426 55.84099609 -54.66040039 55.01855469 C-54.36408322 39.94169122 -49.36633867 27.36882026 -38.75 16.4296875 C-27.69675708 6.01125921 -15.37118228 -0.14650849 0 0 Z " fill="#12243C" transform="translate(335.4375,338.75)"/>
<path d="M0 0 C0.05945801 0.95084473 0.05945801 0.95084473 0.12011719 1.92089844 C1.0038806 17.78055217 1.0038806 17.78055217 5.1953125 32.98828125 C6 35 6 35 6 37 C-1.01968786 38.88854547 -7.76743445 40.3000743 -15 41 C-15.99 41.495 -15.99 41.495 -17 42 C-19.29809536 42.30869938 -21.59720129 42.50883648 -23.90625 42.71875 C-26.05443933 42.892155 -26.05443933 42.892155 -28 44 C-29.32908989 44.18045833 -30.66382043 44.32058429 -32 44.4375 C-35.27741636 44.76709654 -38.45837886 45.24756663 -41.68247986 45.91967773 C-46.80329486 46.96651638 -51.93680048 47.91966607 -57.08032227 48.84765625 C-58.03292938 49.02029999 -58.9855365 49.19294373 -59.9670105 49.37081909 C-62.0168069 49.74221775 -64.06667537 50.11321888 -66.11660957 50.4838562 C-69.36713785 51.07167419 -72.61743016 51.66078122 -75.86766052 52.25024414 C-85.10243719 53.92486993 -94.33757518 55.59749641 -103.57299805 57.26855469 C-109.23876307 58.29381125 -114.90421141 59.32080286 -120.56947136 60.34884644 C-122.71942034 60.73862177 -124.86949033 61.12773022 -127.01968575 61.5161438 C-130.02977806 62.05992001 -133.03946351 62.60589848 -136.04907227 63.15234375 C-136.92672745 63.3103244 -137.80438263 63.46830505 -138.70863342 63.631073 C-143.53679641 64.51029864 -148.32768011 65.48721329 -153.10986233 66.5904541 C-155.3780685 67.08191806 -157.62595181 67.3660393 -159.9375 67.5625 C-162.35574528 67.77148416 -163.81712113 67.90856057 -166 69 C-168.29809536 69.30869938 -170.59720129 69.50883648 -172.90625 69.71875 C-175.05443933 69.892155 -175.05443933 69.892155 -177 71 C-179.8754532 71.39315079 -182.74111846 71.74649025 -185.625 72.0625 C-186.82769531 72.19881836 -186.82769531 72.19881836 -188.0546875 72.33789062 C-190.03607868 72.56197653 -192.01799305 72.7814275 -194 73 C-194.09796875 71.92363281 -194.1959375 70.84726562 -194.296875 69.73828125 C-195.22662909 60.37832627 -196.95033986 51.93455118 -200 43 C-200.67262508 40.66837731 -201.33996491 38.33521789 -202 36 C-190.97940754 33.97785202 -179.95854333 31.95718905 -168.9375 29.9375 C-168.12288677 29.78820415 -167.30827354 29.63890831 -166.46897507 29.48508835 C-146.57467821 25.83923446 -126.67896191 22.20365381 -106.7673645 18.65325928 C-95.36328938 16.61882185 -83.97727378 14.50173682 -72.59521484 12.34692383 C-58.52875224 9.69811319 -44.4340617 7.2084736 -30.33935547 4.71508789 C-29.41078735 4.55081802 -28.48221924 4.38654816 -27.5255127 4.21730042 C-25.72865071 3.89973907 -23.93169681 3.58269729 -22.13464355 3.26622009 C-16.76593912 2.31938043 -11.40414781 1.34273521 -6.05200195 0.30566406 C-4 0 -4 0 0 0 Z " fill="#14263D" transform="translate(597,544)"/>
<path d="M0 0 C10.10996849 6.16817572 17.81449826 13.90748944 21.50390625 25.375 C23.89806596 36.05663562 22.19953892 47.05890812 16.87890625 56.6328125 C15.43131992 58.69733673 13.90161778 60.49355238 12.1640625 62.3203125 C11.5040625 63.02027344 10.8440625 63.72023438 10.1640625 64.44140625 C4.73487554 69.72516855 -0.61411035 72.22479872 -7.8359375 74.3203125 C-8.8259375 74.6503125 -9.8159375 74.9803125 -10.8359375 75.3203125 C-23.73042381 76.43759043 -33.18435736 73.39567779 -43.390625 65.515625 C-50.9138169 58.76157732 -55.23840909 49.41754118 -56.21875 39.4140625 C-56.73941833 27.45142471 -53.87595858 18.29521975 -45.8359375 9.3203125 C-34.51957804 -2.85872907 -15.35181768 -7.54402037 0 0 Z " fill="#122239" transform="translate(527.8359375,422.6796875)"/>
<path d="M0 0 C2.0531552 2.60885247 3.61630073 5.14461976 5.0625 8.125 C8.76225306 14.94748041 14.56417182 20.70944788 21 25 C19.82912116 28.51263651 18.89413625 29.1076766 16 31.3125 C11.24833857 35.00973869 6.57802614 38.78906417 1.9375 42.625 C0.45706334 43.84639306 -1.02340592 45.06774662 -2.50390625 46.2890625 C-3.24914551 46.90426758 -3.99438477 47.51947266 -4.76220703 48.15332031 C-8.33911793 51.10507179 -11.91967106 54.05239624 -15.5 57 C-19.82083869 60.55795545 -24.14134695 64.11631054 -28.4609375 67.67578125 C-43.46904754 80.0419091 -43.46904754 80.0419091 -49.09375 84.625 C-51.45482489 86.55448055 -53.80690861 88.49380029 -56.15625 90.4375 C-57.62490097 91.6459537 -59.09365081 92.85428724 -60.5625 94.0625 C-61.61836304 94.94047241 -61.61836304 94.94047241 -62.69555664 95.83618164 C-63.6835022 96.64623657 -63.6835022 96.64623657 -64.69140625 97.47265625 C-65.28123291 97.96000244 -65.87105957 98.44734863 -66.47875977 98.94946289 C-68 100 -68 100 -70 100 C-71.4110526 98.21008127 -72.75328012 96.36569606 -74.0625 94.5 C-77.58408621 89.61319513 -81.30099369 85.58605988 -85.95703125 81.71875 C-88.09590167 79.91931791 -90.04867488 77.99956012 -92 76 C-85.50400903 70.11350942 -78.81085528 64.51717327 -72 59 C-70.29072718 57.60531727 -68.58240549 56.20946813 -66.875 54.8125 C-65.9675 54.07 -65.06 53.3275 -64.125 52.5625 C-58.14700725 47.66430175 -52.18602432 42.74536326 -46.22167969 37.83056641 C-41.94589552 34.3075082 -37.66905414 30.78573317 -33.3918457 27.2644043 C-29.76076053 24.27476472 -26.13113076 21.28338535 -22.50390625 18.2890625 C-15.04695986 12.13580081 -7.58229875 5.99877198 0 0 Z " fill="#13253D" transform="translate(462,477)"/>
</svg>
